<svg width="103" height="35" viewBox="0 0 103 35" fill="none" xmlns="http://www.w3.org/2000/svg">
<path fill-rule="evenodd" clip-rule="evenodd" d="M19.449 6.27791C19.449 6.04291 19.272 5.74091 18.919 5.37191C18.565 5.00391 18.27 4.81891 18.035 4.81891L17.637 4.95191C17.518 4.95191 17.474 4.92991 17.504 4.88491C17.533 4.84091 17.489 4.81891 17.372 4.81891C17.253 4.81891 16.878 4.73091 16.244 4.55391C15.61 4.37791 15.234 4.28891 15.117 4.28891C14.999 4.28891 14.888 4.26691 14.785 4.22191C14.681 4.17791 14.571 4.15591 14.454 4.15591C13.864 4.15591 13.084 4.30291 12.111 4.59791C10.401 5.12891 9.326 5.65191 8.885 6.16791C8.442 6.68291 8.059 7.41291 7.735 8.35491C7.499 9.12191 7.263 9.90291 7.028 10.6979C6.792 11.3169 6.63 11.6709 6.542 11.7589C6.571 11.8469 6.586 11.9509 6.586 12.0689C6.586 12.3339 6.482 12.7319 6.276 13.2619C6.04 13.9399 5.908 14.3519 5.879 14.4999C6.055 14.4999 6.143 14.5889 6.143 14.7649C7.087 14.4109 7.985 14.2339 8.84 14.2339C9.046 14.2339 10.431 13.5269 12.995 12.1129C13.053 12.2009 13.098 12.2899 13.128 12.3779C14.159 11.3169 15.441 10.3749 16.973 9.54891C17.416 9.07791 17.938 8.44391 18.543 7.64791C19.146 6.85191 19.449 6.39591 19.449 6.27791ZM4.95 16.3999L4.862 16.2229L4.553 16.3559V16.5769L4.95 16.3999ZM3.226 20.5559H3.977V20.3349H3.226V20.5559ZM16.753 23.6939C16.753 22.2509 15.798 20.7619 13.887 19.2289C11.977 17.6979 10.068 16.9309 8.159 16.9309C7.806 16.9309 7.292 16.7919 6.616 16.5099C5.94 16.2309 5.573 16.0619 5.514 16.0029C4.809 18.5959 3.678 22.3829 2.122 27.3629V27.7599C2.122 28.2319 2.357 28.7329 2.829 29.2629C3.241 29.3229 3.705 29.4999 4.221 29.7949C4.736 30.0889 5.023 30.2359 5.083 30.2359C5.171 30.2359 5.208 30.2209 5.193 30.1919C5.178 30.1629 5.23 30.1479 5.348 30.1479C5.436 30.1479 5.48 30.1919 5.48 30.2799L5.658 30.1479C5.686 30.1729 5.694 30.2149 5.679 30.2769C5.664 30.3389 5.73 30.3689 5.879 30.3689C5.967 30.3689 6.025 30.3329 6.055 30.2579C6.085 30.1849 6.158 30.1479 6.276 30.1479C6.482 30.1479 6.542 30.2659 6.453 30.5019C6.453 30.4719 6.438 30.4429 6.409 30.4129V30.3689H6.586C6.674 30.3689 6.954 30.4059 7.426 30.4789C7.896 30.5529 8.265 30.5899 8.531 30.5899C8.413 30.4429 8.354 30.2659 8.354 30.0589C8.735 30.0009 9.35 29.9709 10.201 29.9709C10.289 29.9709 10.325 29.9259 10.31 29.8389C10.295 29.7499 10.347 29.7059 10.465 29.7059C10.582 29.7059 10.933 29.5729 11.52 29.3079C12.105 29.0429 12.428 28.9099 12.488 28.9099C12.635 28.9099 12.751 28.9539 12.84 29.0429C13.133 28.6599 13.667 28.1959 14.444 27.6499C15.22 27.1049 15.682 26.7079 15.829 26.4569C15.975 26.2069 16.151 25.9329 16.357 25.6389C16.621 24.9619 16.753 24.3129 16.753 23.6939ZM0.75 31.6499H0.971V31.2969H0.75V31.6499ZM21.703 6.45491C21.703 6.86791 21.275 7.63391 20.422 8.75391C19.566 9.87391 19.139 10.4629 19.139 10.5219C19.11 10.4329 18.992 10.3889 18.786 10.3889C17.283 11.8029 16.369 12.5099 16.046 12.5099C15.957 12.5099 15.869 12.4659 15.78 12.3779C15.574 12.5849 15.588 12.6869 15.824 12.6869C14.822 13.2479 13.363 14.2339 11.448 15.6489C13.157 16.3859 14.807 17.5489 16.399 19.1409C18.344 21.0859 19.316 22.9579 19.316 24.7549C19.316 25.4329 18.859 26.4499 17.946 27.8049C16.973 29.2489 16.118 29.9709 15.383 29.9709C15.264 29.9709 15.22 30.0149 15.25 30.1029C15.278 30.1919 15.234 30.2359 15.117 30.2359C14.999 30.2359 14.955 30.2079 14.984 30.1479C15.043 30.0589 15.043 30.0009 14.984 29.9709C14.896 30.0589 14.778 30.2359 14.631 30.5019L13.924 30.3689L13.703 30.5899L13.924 30.7659C14.1 30.5599 14.336 30.5459 14.631 30.7219C14.483 30.7519 14.225 30.8549 13.857 31.0319C13.488 31.2089 13.245 31.2979 13.128 31.2979H12.951C12.951 31.2089 12.891 31.1649 12.774 31.1649C12.656 31.1649 12.626 31.2089 12.685 31.2979C12.745 31.3849 12.715 31.4289 12.597 31.4289C12.479 31.4289 12.428 31.4079 12.443 31.3629C12.457 31.3189 12.421 31.2979 12.332 31.2979C12.214 31.2979 11.978 31.3849 11.625 31.5619C11.271 31.7389 11.035 31.8279 10.918 31.8279C10.887 31.8279 10.785 31.7679 10.608 31.6499C10.579 31.6739 10.556 31.7299 10.542 31.8229C10.526 31.9139 10.461 31.9609 10.344 31.9609C10.224 31.9609 10.062 31.9379 9.857 31.8939C9.65 31.8489 9.488 31.8279 9.37 31.8279C9.282 31.8279 9.245 31.8449 9.26 31.8819C9.275 31.9199 9.23 31.9379 9.128 31.9379C9.023 31.9379 8.885 31.9559 8.707 31.9929C8.531 32.0299 8.383 32.0489 8.265 32.0489C8.147 32.0489 8.066 32.0259 8.022 31.9819C7.978 31.9379 7.904 31.9159 7.802 31.9159C7.698 31.9159 7.676 31.8719 7.735 31.7829C7.794 31.6949 7.763 31.6499 7.647 31.6499C7.558 31.6499 7.514 31.7099 7.514 31.8279C7.514 31.9159 7.455 31.9609 7.337 31.9609C6.393 31.9609 5.672 31.8409 5.171 31.6059C4.287 31.2229 3.638 30.9729 3.226 30.8549C3.226 30.9149 3.344 30.8109 3.58 30.5459C3.462 30.4279 3.314 30.3689 3.137 30.3689C3.05 30.4569 3.006 30.6049 3.006 30.8109C3.006 30.5159 2.534 30.1919 1.591 29.8389C1.296 30.6929 0.971 31.8409 0.618 33.2859C0.618 33.1089 0.514 33.0209 0.308 33.0209C0.279 32.6079 0.353 32.3579 0.53 32.2689C0.53 32.0919 0.456 32.0769 0.308 32.2249C0.308 31.6059 0.205 31.2379 0 31.1199C0.264 30.8549 0.53 30.6639 0.796 30.5459C0.677 30.4869 0.412 30.4569 0 30.4569C0.058 30.2519 0.161 30.0009 0.308 29.7059C0.308 29.2629 0.353 28.5419 0.441 27.5399C0.589 26.2139 0.663 25.4479 0.663 25.2409L5.348 7.78091C5.407 7.19191 5.908 5.89491 6.851 3.89091C7.883 1.73991 8.59 0.66391 8.972 0.66391C9.267 0.66391 9.739 1.00391 10.387 1.68091C10.299 1.85691 10.166 2.21191 9.989 2.74191C10.136 2.85991 10.224 2.91891 10.255 2.91891C10.344 2.91891 10.652 2.82991 11.183 2.65291C11.714 2.47591 12.111 2.38791 12.377 2.38791C12.494 2.38791 12.62 2.40991 12.752 2.45491C12.885 2.49891 13.01 2.51991 13.128 2.51991C13.245 2.51991 13.289 2.47591 13.261 2.38791C13.23 2.29891 13.275 2.25591 13.393 2.25591C13.511 2.25591 13.533 2.29891 13.459 2.38791C13.386 2.47591 13.408 2.51991 13.525 2.51991C13.643 2.51991 13.665 2.47591 13.592 2.38791C13.518 2.29891 13.54 2.25591 13.658 2.25591C15.101 2.25591 16.604 2.58091 18.167 3.22791C20.171 3.99491 21.305 5.02591 21.571 6.32191L21.703 6.45491Z" fill="#595A59"/>
<path fill-rule="evenodd" clip-rule="evenodd" d="M32.8416 6.71929C32.8416 7.28029 32.5916 7.56029 32.0896 7.56029C31.5296 7.56029 31.2506 7.23629 31.2506 6.58729C31.2506 6.46929 31.3976 6.13029 31.6926 5.57129C32.4586 5.71829 32.8416 6.10129 32.8416 6.71929ZM23.2936 32.5343L22.9846 33.0213L22.8076 32.8883L23.1166 32.4023L23.2936 32.5343ZM23.0286 32.4903L22.6746 32.1373L22.5416 32.2693L22.8966 32.5783L23.0286 32.4903ZM22.4976 32.0923H23.2496V31.8713H22.4976V32.0923ZM27.8026 20.2013C27.2426 22.0883 26.5346 24.1803 25.6806 26.4793C24.9736 28.3353 24.5166 29.7803 24.3106 30.8113C24.0456 30.8113 23.8676 30.8553 23.7796 30.9433C23.7796 31.2083 23.9126 31.2233 24.1786 30.9873C23.9426 31.5463 23.5286 32.4753 22.9406 33.7723H22.3646C22.3066 33.6543 22.2026 33.5073 22.0566 33.3303V31.5623C22.2616 31.3563 22.3646 31.1643 22.3646 30.9873C22.6596 30.9873 22.8526 31.0313 22.9406 31.1193L23.1166 30.8993C22.7916 30.7223 22.4536 30.6933 22.1006 30.8113C22.3066 29.8973 22.5566 29.2483 22.8526 28.8653C22.8526 28.7483 22.7636 28.6893 22.5866 28.6893C22.9406 27.5993 23.5436 26.0663 24.3996 24.0913V23.4283C24.4576 23.1053 24.7596 22.3753 25.3046 21.2403C25.8506 20.1063 26.2116 19.5383 26.3886 19.5383C27.1546 19.8333 27.6256 20.0553 27.8026 20.2013Z" fill="#595A59"/>
<path fill-rule="evenodd" clip-rule="evenodd" d="M40.0462 11.7147H40.4002V11.4937H40.0462V11.7147ZM39.3832 29.7497L39.2512 29.6167L38.9412 29.9267L39.0742 30.1027L39.3832 29.7497ZM38.5872 30.2357H38.9412V30.0147H38.5872V30.2357ZM37.6602 30.7667H38.2782V30.5457H37.6602V30.7667ZM36.2892 30.8547C36.2892 30.7657 36.2292 30.6347 36.1122 30.4567C36.0242 30.5457 35.9062 30.6047 35.7582 30.6347L36.2892 30.8547ZM35.1402 30.8987H35.6272V30.6777H35.1402V30.8987ZM34.3002 26.8767C34.2122 26.7877 34.0492 26.7437 33.8132 26.7437C33.8132 26.7737 33.8362 26.8537 33.8792 26.9867C33.9232 27.1197 33.9462 27.2007 33.9462 27.2297C34.1812 27.2297 34.3002 27.1127 34.3002 26.8767ZM46.8092 21.6607C46.8092 23.0157 45.3292 25.0637 42.3672 27.8047C39.4052 30.5457 37.3202 31.9157 36.1122 31.9157C35.9942 31.9157 35.9722 31.8717 36.0462 31.7827C36.1192 31.6947 36.0972 31.6497 35.9792 31.6497C35.8622 31.6497 35.7812 31.6947 35.7372 31.7827C35.6922 31.8717 35.6112 31.9157 35.4942 31.9157C35.4632 31.9157 35.3612 31.8277 35.1842 31.6497L34.7862 32.0487C34.4912 31.9887 34.1812 31.7977 33.8582 31.4737C33.5332 31.1497 33.3862 30.8257 33.4162 30.5017V29.7947C33.8282 30.1477 34.0642 30.3237 34.1232 30.3237C34.2122 30.3237 34.2552 30.2517 34.2552 30.1027C34.2552 30.3397 34.4032 30.4567 34.6982 30.4567C34.8152 30.4567 34.8892 30.4127 34.9192 30.3237C34.9482 30.2357 35.0072 30.1917 35.0952 30.1917C35.2122 30.1917 35.2572 30.2217 35.2282 30.2797C35.1692 30.3397 35.1542 30.3987 35.1842 30.4567C37.9242 28.5997 39.8542 27.1717 40.9742 26.1697C42.8602 24.4897 44.0972 22.7957 44.6882 21.0857C44.5402 20.9387 44.0972 20.8647 43.3622 20.8647L40.0902 22.9867C40.0022 22.9867 39.9142 22.9427 39.8262 22.8537C39.5302 23.4437 38.7202 24.5937 37.3942 26.3027C36.3032 27.6867 35.6112 28.8947 35.3162 29.9267C34.9332 29.7797 34.5212 29.7797 34.0792 29.9267C33.5182 29.3377 33.2392 28.9097 33.2392 28.6447C33.2392 28.5267 33.2972 28.4607 33.4162 28.4457C33.5332 28.4307 33.6072 28.4097 33.6372 28.3797C33.5482 28.3207 33.4602 28.2907 33.3722 28.2907C34.1082 24.2837 35.2122 20.0407 36.6862 15.5597L41.1072 3.58169C41.4012 3.02169 41.6962 2.44769 41.9912 1.85669C42.4332 1.12169 42.8892 0.752686 43.3622 0.752686C43.6272 0.752686 43.8772 0.988686 44.1132 1.45969C44.3192 1.81269 44.4222 2.06369 44.4222 2.21169C44.4222 2.18169 43.7292 3.81769 42.3442 7.11769C42.0802 7.70769 41.0632 10.5077 39.2942 15.5157C39.1762 15.5457 39.0142 15.6347 38.8082 15.7817C38.7792 16.6657 38.4692 17.9767 37.8802 19.7157C37.0852 22.1907 36.6422 23.5767 36.5542 23.8707C36.5252 23.8997 36.5542 23.9597 36.6422 24.0477C37.1732 23.6647 37.9092 22.9717 38.8532 21.9707C39.7952 20.9687 40.5772 20.2757 41.1962 19.8917C42.1382 19.3037 43.1992 19.0087 44.3782 19.0087C45.9992 19.0087 46.8092 19.8917 46.8092 21.6607Z" fill="#595A59"/>
<path fill-rule="evenodd" clip-rule="evenodd" d="M50.1238 33.021L50.0798 33.198L49.6378 33.065V32.844L50.1238 33.021ZM49.6378 32.535H50.1238V32.313H49.6378V32.535ZM63.5618 1.018L60.9538 5.349C59.0098 8.503 57.7118 10.875 57.0638 12.466C56.2688 14.146 55.4728 15.811 54.6768 17.461C53.7638 19.377 53.0568 21.042 52.5558 22.457C52.2608 23.635 51.7738 25.241 51.0968 27.275C51.0368 27.481 51.1108 27.643 51.3178 27.76C51.2878 27.791 51.2288 27.827 51.1408 27.872C51.0528 27.916 50.9778 27.967 50.9198 28.026C51.0078 28.085 51.0968 28.114 51.1858 28.114C50.8318 29.853 50.6548 30.62 50.6548 30.413V30.701V30.987C50.5068 31.106 50.4338 31.385 50.4338 31.828C50.4038 32.387 50.3748 32.726 50.3448 32.844C50.2568 33.08 50.1168 33.286 49.9258 33.463C49.7328 33.639 49.6378 33.787 49.6378 33.905C49.6378 33.994 49.6668 34.096 49.7268 34.214L49.3288 33.905C49.3288 33.816 49.4608 33.639 49.7268 33.375C49.6668 33.286 49.5788 33.242 49.4608 33.242C49.3428 33.211 49.2838 33.227 49.2838 33.286C49.3428 33.05 49.2698 32.519 49.0628 31.695C49.0628 31.165 49.3428 28.895 49.9028 24.887L50.2128 25.153L50.3898 24.976C50.2418 24.858 50.1688 24.623 50.1688 24.269C50.1688 23.296 50.5218 22.191 51.2288 20.954C51.1108 20.511 51.0528 20.378 51.0528 20.555C51.0818 20.497 51.3028 20.364 51.7158 20.158C51.5388 19.981 51.4498 19.833 51.4498 19.715C51.4498 19.451 51.5978 19.201 51.8928 18.964C52.0098 17.933 52.7608 16.077 54.1468 13.395C54.1468 13.071 54.6468 11.877 55.6488 9.814C56.8878 7.192 57.5948 5.88 57.7708 5.88C57.8588 5.88 57.9478 5.924 58.0358 6.012C58.0358 5.454 58.5368 4.363 59.5398 2.742C60.6878 0.915 61.7058 0 62.5898 0C63.2368 0 63.5618 0.34 63.5618 1.018Z" fill="#595A59"/>
<path fill-rule="evenodd" clip-rule="evenodd" d="M67.408 6.71929C67.408 7.28029 67.157 7.56029 66.656 7.56029C66.096 7.56029 65.816 7.23629 65.816 6.58729C65.816 6.46929 65.964 6.13029 66.258 5.57129C67.024 5.71829 67.408 6.10129 67.408 6.71929ZM57.859 32.5343L57.551 33.0213L57.373 32.8883L57.683 32.4023L57.859 32.5343ZM57.595 32.4903L57.241 32.1373L57.108 32.2693L57.462 32.5783L57.595 32.4903ZM57.064 32.0923H57.815V31.8713H57.064V32.0923ZM62.369 20.2013C61.808 22.0883 61.101 24.1803 60.247 26.4793C59.54 28.3353 59.082 29.7803 58.877 30.8113C58.611 30.8113 58.434 30.8553 58.346 30.9433C58.346 31.2083 58.478 31.2233 58.744 30.9873C58.508 31.5463 58.095 32.4753 57.506 33.7723H56.931C56.872 33.6543 56.769 33.5073 56.622 33.3303V31.5623C56.828 31.3563 56.931 31.1643 56.931 30.9873C57.225 30.9873 57.418 31.0313 57.506 31.1193L57.683 30.8993C57.358 30.7223 57.02 30.6933 56.666 30.8113C56.872 29.8973 57.123 29.2483 57.418 28.8653C57.418 28.7483 57.329 28.6893 57.152 28.6893C57.506 27.5993 58.11 26.0663 58.965 24.0913V23.4283C59.023 23.1053 59.325 22.3753 59.871 21.2403C60.416 20.1063 60.777 19.5383 60.954 19.5383C61.72 19.8333 62.191 20.0553 62.369 20.2013Z" fill="#595A59"/>
<path fill-rule="evenodd" clip-rule="evenodd" d="M81.198 24.1362L81.1 23.9592L80.757 24.1362V24.3132L81.198 24.1362ZM80.138 17.5492H80.757V17.2842H80.138V17.5492ZM74.922 31.9162H75.673V31.6952H74.922V31.9162ZM70.546 32.0482H71.032V31.9152H70.546V32.0482ZM70.413 31.6322L70.259 31.5622L70.103 31.8452L70.259 31.9152L70.413 31.6322ZM82.083 20.8212C82.083 21.0272 82.023 21.3662 81.905 21.8372C81.905 21.8972 81.92 22.2352 81.95 22.8542C81.979 23.2672 81.846 23.5472 81.552 23.6942C81.64 23.7532 81.729 23.7822 81.817 23.7822L81.331 25.0642C81.331 25.1822 81.36 25.2702 81.42 25.3292C81.302 25.2122 81.125 25.2702 80.889 25.5062C80.977 25.5942 81.066 25.6392 81.154 25.6392C81.154 25.8162 81.081 25.9782 80.933 26.1242C80.933 25.9482 80.874 25.8602 80.757 25.8602C80.757 26.5082 80.432 27.2302 79.784 28.0262C78.604 29.4702 77.942 30.2952 77.795 30.5012C77.765 30.5012 77.706 30.4562 77.618 30.3682C77.53 30.2802 77.456 30.2362 77.397 30.2362C77.308 30.3542 77.367 30.5162 77.574 30.7222C75.953 31.9302 75.039 32.5342 74.833 32.5342C74.745 32.5342 74.552 32.5572 74.259 32.6012C73.964 32.6452 73.758 32.6672 73.639 32.6672C73.521 32.6672 73.477 32.6892 73.507 32.7342C73.536 32.7782 73.5 32.8002 73.396 32.8002C73.293 32.8002 73.021 32.8222 72.579 32.8652C72.136 32.9102 71.872 32.9322 71.783 32.9322C71.429 32.9322 70.825 32.6522 69.97 32.0922C69.97 31.9452 69.867 31.8712 69.662 31.8712C69.19 31.8712 68.806 31.3852 68.512 30.4122C68.336 29.7652 68.158 29.1022 67.981 28.4232C68.364 28.4232 68.541 28.4392 68.512 28.4682C68.158 28.2022 67.981 27.9372 67.981 27.6722C67.981 26.4642 68.836 24.5492 70.546 21.9252C72.519 18.8612 74.391 17.3282 76.159 17.3282C76.248 17.3282 76.38 17.4032 76.557 17.5492C76.704 17.3142 76.955 17.1962 77.308 17.1962C77.691 17.1962 77.957 17.3322 78.104 17.6042C78.252 17.8762 78.384 18.1482 78.502 18.4192C78.472 18.4192 78.31 18.5182 78.016 18.7142C77.72 18.9102 77.5 19.0082 77.353 19.0082C76.822 19.0082 76.027 19.5362 74.966 20.5932C74.435 21.1812 73.889 21.7612 73.33 22.3332C72.77 22.9072 72.093 23.9992 71.297 25.6152C70.502 27.2292 70.103 28.4482 70.103 29.2702C70.103 29.5342 70.316 29.8792 70.744 30.3052C71.171 30.7302 71.517 30.9432 71.783 30.9432C71.9 30.9432 72.144 30.8992 72.512 30.8112C72.881 30.7222 73.124 30.6782 73.242 30.6782C73.683 30.6782 74.229 30.4432 74.878 29.9712C75.82 29.3232 76.306 28.9842 76.336 28.9532C76.365 28.6002 76.601 28.2832 77.043 28.0032C77.485 27.7242 77.706 27.4502 77.706 27.1862C77.824 27.0982 77.971 27.1422 78.148 27.3192C78.148 27.1132 78.193 26.8762 78.281 26.6122C78.87 26.0522 79.298 25.2852 79.563 24.3132C79.799 23.4582 80.108 22.9282 80.491 22.7212C80.491 22.6932 80.506 22.6482 80.535 22.5882C80.564 22.5602 80.564 22.5442 80.535 22.5442H80.358C80.241 22.5442 80.152 21.9252 80.094 20.6882C80.034 19.5092 80.034 18.8172 80.094 18.6112C79.946 18.4632 79.828 18.4342 79.74 18.5222C79.74 18.4932 79.695 18.3452 79.607 18.0802C79.519 17.8152 79.504 17.5942 79.563 17.4172C79.504 17.3592 79.327 17.3282 79.032 17.3282C79.003 17.1522 79.047 16.8422 79.165 16.4002C80.05 16.7252 80.757 17.0932 81.287 17.5052C81.287 17.8892 81.198 18.1242 81.021 18.2122C81.376 18.5662 81.508 18.8312 81.42 19.0082C81.478 19.0682 81.611 19.0972 81.817 19.0972C81.817 19.2732 81.861 19.5752 81.95 20.0022C82.038 20.4302 82.083 20.7032 82.083 20.8212Z" fill="#595A59"/>
<path fill-rule="evenodd" clip-rule="evenodd" d="M90.9226 24.9312L90.6126 24.6222L90.4806 24.7102L90.7906 25.0642L90.9226 24.9312ZM90.9226 28.2022L90.8346 28.4232L90.3926 28.2462V28.0702L90.9226 28.2022ZM87.7396 17.4612L87.4306 17.1522L87.2986 17.2852L87.6076 17.5942L87.7396 17.4612ZM93.5746 14.9862L93.1326 15.4282C92.8966 15.4282 92.7196 15.4502 92.6026 15.4942C92.4846 15.5382 92.3816 15.5602 92.2926 15.5602C92.1746 15.5602 91.9536 15.5382 91.6296 15.4942C91.3056 15.4502 91.0846 15.4282 90.9666 15.4282C90.6126 15.4282 90.1786 15.6052 89.6626 15.9582C89.1476 16.3122 88.8896 16.6072 88.8896 16.8422C90.6866 21.4982 91.5856 24.6222 91.5856 26.2132C91.5856 27.2152 91.2906 28.4682 90.7016 29.9712C89.9356 31.9152 89.0226 32.8882 87.9616 32.8882C87.8726 32.8882 87.7836 32.8662 87.6956 32.8222C87.6076 32.7782 87.5036 32.7552 87.3866 32.7552C87.2686 32.7552 87.1286 32.8442 86.9666 33.0212C86.8046 33.1982 86.6796 33.2852 86.5906 33.2852C86.4726 33.2852 86.3476 33.2422 86.2146 33.1532C86.0826 33.0652 85.9566 33.0212 85.8396 33.0212C85.7216 33.0212 85.6546 33.0652 85.6406 33.1532C85.6256 33.2422 85.5596 33.2852 85.4416 33.2852C85.3816 33.2852 85.0726 33.1382 84.5136 32.8442V32.3582C84.6026 32.3582 84.7846 32.3352 85.0666 32.2912C85.3456 32.2472 85.5446 32.2252 85.6616 32.2252C85.7796 32.2252 85.8396 32.1812 85.8396 32.0922L85.7506 31.8712C85.8096 31.8412 85.8676 31.8412 85.9276 31.8712C85.9856 31.9012 85.9566 31.9452 85.8396 32.0042C86.1706 32.1512 86.4366 32.2252 86.6356 32.2252V31.4292C86.7476 31.5182 86.8736 31.5622 87.0146 31.5622C86.9866 31.3832 87.2536 30.9252 87.8176 30.1852C88.4646 29.3272 88.8446 28.7632 88.9576 28.4962C89.4426 27.4902 89.5976 26.4242 89.4216 25.2982C89.4496 25.2402 89.4646 25.1362 89.4646 24.9882C89.4646 24.5132 88.9926 23.0042 88.0496 20.4562C87.1066 17.9102 86.6356 16.2822 86.6356 15.5712C86.6356 15.0962 87.0176 14.6372 87.7836 14.1932C88.4326 13.8082 88.9186 13.6162 89.2426 13.6162C89.3606 13.6162 89.4196 13.6752 89.4196 13.7922C89.4196 13.9102 89.4646 13.9692 89.5526 13.9692H89.9946C89.9946 13.8522 89.8766 13.7922 89.6406 13.7922C90.0536 13.6752 90.4216 13.6162 90.7456 13.6162C90.7456 13.8802 90.7756 14.0432 90.8346 14.1022C90.8626 14.1022 90.9296 14.0652 91.0326 13.9922C91.1366 13.9172 91.2026 13.8672 91.2326 13.8362C91.1726 13.8362 91.1136 13.8232 91.0556 13.7922C91.5566 13.8802 92.0566 13.9692 92.5586 14.0582C93.2356 14.2342 93.5746 14.5432 93.5746 14.9862Z" fill="#595A59"/>
<path fill-rule="evenodd" clip-rule="evenodd" d="M100.347 8.85401H100.574C100.837 8.85401 101.052 8.76701 101.052 8.55201C101.052 8.36501 100.913 8.23901 100.611 8.23901C100.486 8.23901 100.398 8.25101 100.347 8.26401V8.85401ZM100.334 10.023H99.8565V7.96201C100.045 7.92401 100.309 7.89901 100.649 7.89901C101.039 7.89901 101.215 7.96201 101.367 8.05001C101.48 8.13801 101.568 8.30101 101.568 8.50201C101.568 8.72801 101.391 8.90501 101.14 8.98001V9.00501C101.341 9.08101 101.454 9.23201 101.516 9.50701C101.579 9.82201 101.618 9.94801 101.668 10.023H101.153C101.089 9.94801 101.052 9.75801 100.989 9.52001C100.951 9.29401 100.826 9.19401 100.561 9.19401H100.334V10.023ZM99.0635 8.94201C99.0635 9.86001 99.7425 10.589 100.674 10.589C101.579 10.589 102.246 9.86001 102.246 8.95501C102.246 8.03801 101.579 7.29601 100.661 7.29601C99.7425 7.29601 99.0635 8.03801 99.0635 8.94201ZM102.774 8.94201C102.774 10.111 101.857 11.029 100.661 11.029C99.4785 11.029 98.5345 10.111 98.5345 8.94201C98.5345 7.79901 99.4785 6.88101 100.661 6.88101C101.857 6.88101 102.774 7.79901 102.774 8.94201Z" fill="#595A59"/>
<path fill-rule="evenodd" clip-rule="evenodd" d="M19.449 6.27791C19.449 6.04291 19.272 5.74091 18.919 5.37191C18.565 5.00391 18.27 4.81891 18.035 4.81891L17.637 4.95191C17.518 4.95191 17.474 4.92991 17.504 4.88491C17.533 4.84091 17.489 4.81891 17.372 4.81891C17.253 4.81891 16.878 4.73091 16.244 4.55391C15.61 4.37791 15.234 4.28891 15.117 4.28891C14.999 4.28891 14.888 4.26691 14.785 4.22191C14.681 4.17791 14.571 4.15591 14.454 4.15591C13.864 4.15591 13.084 4.30291 12.111 4.59791C10.401 5.12891 9.326 5.65191 8.885 6.16791C8.442 6.68291 8.059 7.41291 7.735 8.35491C7.499 9.12191 7.263 9.90291 7.028 10.6979C6.792 11.3169 6.63 11.6709 6.542 11.7589C6.571 11.8469 6.586 11.9509 6.586 12.0689C6.586 12.3339 6.482 12.7319 6.276 13.2619C6.04 13.9399 5.908 14.3519 5.879 14.4999C6.055 14.4999 6.143 14.5889 6.143 14.7649C7.087 14.4109 7.985 14.2339 8.84 14.2339C9.046 14.2339 10.431 13.5269 12.995 12.1129C13.053 12.2009 13.098 12.2899 13.128 12.3779C14.159 11.3169 15.441 10.3749 16.973 9.54891C17.416 9.07791 17.938 8.44391 18.543 7.64791C19.146 6.85191 19.449 6.39591 19.449 6.27791ZM4.95 16.3999L4.862 16.2229L4.553 16.3559V16.5769L4.95 16.3999ZM3.226 20.5559H3.977V20.3349H3.226V20.5559ZM16.753 23.6939C16.753 22.2509 15.798 20.7619 13.887 19.2289C11.977 17.6979 10.068 16.9309 8.159 16.9309C7.806 16.9309 7.292 16.7919 6.616 16.5099C5.94 16.2309 5.573 16.0619 5.514 16.0029C4.809 18.5959 3.678 22.3829 2.122 27.3629V27.7599C2.122 28.2319 2.357 28.7329 2.829 29.2629C3.241 29.3229 3.705 29.4999 4.221 29.7949C4.736 30.0889 5.023 30.2359 5.083 30.2359C5.171 30.2359 5.208 30.2209 5.193 30.1919C5.178 30.1629 5.23 30.1479 5.348 30.1479C5.436 30.1479 5.48 30.1919 5.48 30.2799L5.658 30.1479C5.686 30.1729 5.694 30.2149 5.679 30.2769C5.664 30.3389 5.73 30.3689 5.879 30.3689C5.967 30.3689 6.025 30.3329 6.055 30.2579C6.085 30.1849 6.158 30.1479 6.276 30.1479C6.482 30.1479 6.542 30.2659 6.453 30.5019C6.453 30.4719 6.438 30.4429 6.409 30.4129V30.3689H6.586C6.674 30.3689 6.954 30.4059 7.426 30.4789C7.896 30.5529 8.265 30.5899 8.531 30.5899C8.413 30.4429 8.354 30.2659 8.354 30.0589C8.735 30.0009 9.35 29.9709 10.201 29.9709C10.289 29.9709 10.325 29.9259 10.31 29.8389C10.295 29.7499 10.347 29.7059 10.465 29.7059C10.582 29.7059 10.933 29.5729 11.52 29.3079C12.105 29.0429 12.428 28.9099 12.488 28.9099C12.635 28.9099 12.751 28.9539 12.84 29.0429C13.133 28.6599 13.667 28.1959 14.444 27.6499C15.22 27.1049 15.682 26.7079 15.829 26.4569C15.975 26.2069 16.151 25.9329 16.357 25.6389C16.621 24.9619 16.753 24.3129 16.753 23.6939ZM0.75 31.6499H0.971V31.2969H0.75V31.6499ZM21.703 6.45491C21.703 6.86791 21.275 7.63391 20.422 8.75391C19.566 9.87391 19.139 10.4629 19.139 10.5219C19.11 10.4329 18.992 10.3889 18.786 10.3889C17.283 11.8029 16.369 12.5099 16.046 12.5099C15.957 12.5099 15.869 12.4659 15.78 12.3779C15.574 12.5849 15.588 12.6869 15.824 12.6869C14.822 13.2479 13.363 14.2339 11.448 15.6489C13.157 16.3859 14.807 17.5489 16.399 19.1409C18.344 21.0859 19.316 22.9579 19.316 24.7549C19.316 25.4329 18.859 26.4499 17.946 27.8049C16.973 29.2489 16.118 29.9709 15.383 29.9709C15.264 29.9709 15.22 30.0149 15.25 30.1029C15.278 30.1919 15.234 30.2359 15.117 30.2359C14.999 30.2359 14.955 30.2079 14.984 30.1479C15.043 30.0589 15.043 30.0009 14.984 29.9709C14.896 30.0589 14.778 30.2359 14.631 30.5019L13.924 30.3689L13.703 30.5899L13.924 30.7659C14.1 30.5599 14.336 30.5459 14.631 30.7219C14.483 30.7519 14.225 30.8549 13.857 31.0319C13.488 31.2089 13.245 31.2979 13.128 31.2979H12.951C12.951 31.2089 12.891 31.1649 12.774 31.1649C12.656 31.1649 12.626 31.2089 12.685 31.2979C12.745 31.3849 12.715 31.4289 12.597 31.4289C12.479 31.4289 12.428 31.4079 12.443 31.3629C12.457 31.3189 12.421 31.2979 12.332 31.2979C12.214 31.2979 11.978 31.3849 11.625 31.5619C11.271 31.7389 11.035 31.8279 10.918 31.8279C10.887 31.8279 10.785 31.7679 10.608 31.6499C10.579 31.6739 10.556 31.7299 10.542 31.8229C10.526 31.9139 10.461 31.9609 10.344 31.9609C10.224 31.9609 10.062 31.9379 9.857 31.8939C9.65 31.8489 9.488 31.8279 9.37 31.8279C9.282 31.8279 9.245 31.8449 9.26 31.8819C9.275 31.9199 9.23 31.9379 9.128 31.9379C9.023 31.9379 8.885 31.9559 8.707 31.9929C8.531 32.0299 8.383 32.0489 8.265 32.0489C8.147 32.0489 8.066 32.0259 8.022 31.9819C7.978 31.9379 7.904 31.9159 7.802 31.9159C7.698 31.9159 7.676 31.8719 7.735 31.7829C7.794 31.6949 7.763 31.6499 7.647 31.6499C7.558 31.6499 7.514 31.7099 7.514 31.8279C7.514 31.9159 7.455 31.9609 7.337 31.9609C6.393 31.9609 5.672 31.8409 5.171 31.6059C4.287 31.2229 3.638 30.9729 3.226 30.8549C3.226 30.9149 3.344 30.8109 3.58 30.5459C3.462 30.4279 3.314 30.3689 3.137 30.3689C3.05 30.4569 3.006 30.6049 3.006 30.8109C3.006 30.5159 2.534 30.1919 1.591 29.8389C1.296 30.6929 0.971 31.8409 0.618 33.2859C0.618 33.1089 0.514 33.0209 0.308 33.0209C0.279 32.6079 0.353 32.3579 0.53 32.2689C0.53 32.0919 0.456 32.0769 0.308 32.2249C0.308 31.6059 0.205 31.2379 0 31.1199C0.264 30.8549 0.53 30.6639 0.796 30.5459C0.677 30.4869 0.412 30.4569 0 30.4569C0.058 30.2519 0.161 30.0009 0.308 29.7059C0.308 29.2629 0.353 28.5419 0.441 27.5399C0.589 26.2139 0.663 25.4479 0.663 25.2409L5.348 7.78091C5.407 7.19191 5.908 5.89491 6.851 3.89091C7.883 1.73991 8.59 0.66391 8.972 0.66391C9.267 0.66391 9.739 1.00391 10.387 1.68091C10.299 1.85691 10.166 2.21191 9.989 2.74191C10.136 2.85991 10.224 2.91891 10.255 2.91891C10.344 2.91891 10.652 2.82991 11.183 2.65291C11.714 2.47591 12.111 2.38791 12.377 2.38791C12.494 2.38791 12.62 2.40991 12.752 2.45491C12.885 2.49891 13.01 2.51991 13.128 2.51991C13.245 2.51991 13.289 2.47591 13.261 2.38791C13.23 2.29891 13.275 2.25591 13.393 2.25591C13.511 2.25591 13.533 2.29891 13.459 2.38791C13.386 2.47591 13.408 2.51991 13.525 2.51991C13.643 2.51991 13.665 2.47591 13.592 2.38791C13.518 2.29891 13.54 2.25591 13.658 2.25591C15.101 2.25591 16.604 2.58091 18.167 3.22791C20.171 3.99491 21.305 5.02591 21.571 6.32191L21.703 6.45491Z" fill="#595A59"/>
<path fill-rule="evenodd" clip-rule="evenodd" d="M32.8416 6.71929C32.8416 7.28029 32.5916 7.56029 32.0896 7.56029C31.5296 7.56029 31.2506 7.23629 31.2506 6.58729C31.2506 6.46929 31.3976 6.13029 31.6926 5.57129C32.4586 5.71829 32.8416 6.10129 32.8416 6.71929ZM23.2936 32.5343L22.9846 33.0213L22.8076 32.8883L23.1166 32.4023L23.2936 32.5343ZM23.0286 32.4903L22.6746 32.1373L22.5416 32.2693L22.8966 32.5783L23.0286 32.4903ZM22.4976 32.0923H23.2496V31.8713H22.4976V32.0923ZM27.8026 20.2013C27.2426 22.0883 26.5346 24.1803 25.6806 26.4793C24.9736 28.3353 24.5166 29.7803 24.3106 30.8113C24.0456 30.8113 23.8676 30.8553 23.7796 30.9433C23.7796 31.2083 23.9126 31.2233 24.1786 30.9873C23.9426 31.5463 23.5286 32.4753 22.9406 33.7723H22.3646C22.3066 33.6543 22.2026 33.5073 22.0566 33.3303V31.5623C22.2616 31.3563 22.3646 31.1643 22.3646 30.9873C22.6596 30.9873 22.8526 31.0313 22.9406 31.1193L23.1166 30.8993C22.7916 30.7223 22.4536 30.6933 22.1006 30.8113C22.3066 29.8973 22.5566 29.2483 22.8526 28.8653C22.8526 28.7483 22.7636 28.6893 22.5866 28.6893C22.9406 27.5993 23.5436 26.0663 24.3996 24.0913V23.4283C24.4576 23.1053 24.7596 22.3753 25.3046 21.2403C25.8506 20.1063 26.2116 19.5383 26.3886 19.5383C27.1546 19.8333 27.6256 20.0553 27.8026 20.2013Z" fill="#595A59"/>
<path fill-rule="evenodd" clip-rule="evenodd" d="M40.0462 11.7147H40.4002V11.4937H40.0462V11.7147ZM39.3832 29.7497L39.2512 29.6167L38.9412 29.9267L39.0742 30.1027L39.3832 29.7497ZM38.5872 30.2357H38.9412V30.0147H38.5872V30.2357ZM37.6602 30.7667H38.2782V30.5457H37.6602V30.7667ZM36.2892 30.8547C36.2892 30.7657 36.2292 30.6347 36.1122 30.4567C36.0242 30.5457 35.9062 30.6047 35.7582 30.6347L36.2892 30.8547ZM35.1402 30.8987H35.6272V30.6777H35.1402V30.8987ZM34.3002 26.8767C34.2122 26.7877 34.0492 26.7437 33.8132 26.7437C33.8132 26.7737 33.8362 26.8537 33.8792 26.9867C33.9232 27.1197 33.9462 27.2007 33.9462 27.2297C34.1812 27.2297 34.3002 27.1127 34.3002 26.8767ZM46.8092 21.6607C46.8092 23.0157 45.3292 25.0637 42.3672 27.8047C39.4052 30.5457 37.3202 31.9157 36.1122 31.9157C35.9942 31.9157 35.9722 31.8717 36.0462 31.7827C36.1192 31.6947 36.0972 31.6497 35.9792 31.6497C35.8622 31.6497 35.7812 31.6947 35.7372 31.7827C35.6922 31.8717 35.6112 31.9157 35.4942 31.9157C35.4632 31.9157 35.3612 31.8277 35.1842 31.6497L34.7862 32.0487C34.4912 31.9887 34.1812 31.7977 33.8582 31.4737C33.5332 31.1497 33.3862 30.8257 33.4162 30.5017V29.7947C33.8282 30.1477 34.0642 30.3237 34.1232 30.3237C34.2122 30.3237 34.2552 30.2517 34.2552 30.1027C34.2552 30.3397 34.4032 30.4567 34.6982 30.4567C34.8152 30.4567 34.8892 30.4127 34.9192 30.3237C34.9482 30.2357 35.0072 30.1917 35.0952 30.1917C35.2122 30.1917 35.2572 30.2217 35.2282 30.2797C35.1692 30.3397 35.1542 30.3987 35.1842 30.4567C37.9242 28.5997 39.8542 27.1717 40.9742 26.1697C42.8602 24.4897 44.0972 22.7957 44.6882 21.0857C44.5402 20.9387 44.0972 20.8647 43.3622 20.8647L40.0902 22.9867C40.0022 22.9867 39.9142 22.9427 39.8262 22.8537C39.5302 23.4437 38.7202 24.5937 37.3942 26.3027C36.3032 27.6867 35.6112 28.8947 35.3162 29.9267C34.9332 29.7797 34.5212 29.7797 34.0792 29.9267C33.5182 29.3377 33.2392 28.9097 33.2392 28.6447C33.2392 28.5267 33.2972 28.4607 33.4162 28.4457C33.5332 28.4307 33.6072 28.4097 33.6372 28.3797C33.5482 28.3207 33.4602 28.2907 33.3722 28.2907C34.1082 24.2837 35.2122 20.0407 36.6862 15.5597L41.1072 3.58169C41.4012 3.02169 41.6962 2.44769 41.9912 1.85669C42.4332 1.12169 42.8892 0.752686 43.3622 0.752686C43.6272 0.752686 43.8772 0.988686 44.1132 1.45969C44.3192 1.81269 44.4222 2.06369 44.4222 2.21169C44.4222 2.18169 43.7292 3.81769 42.3442 7.11769C42.0802 7.70769 41.0632 10.5077 39.2942 15.5157C39.1762 15.5457 39.0142 15.6347 38.8082 15.7817C38.7792 16.6657 38.4692 17.9767 37.8802 19.7157C37.0852 22.1907 36.6422 23.5767 36.5542 23.8707C36.5252 23.8997 36.5542 23.9597 36.6422 24.0477C37.1732 23.6647 37.9092 22.9717 38.8532 21.9707C39.7952 20.9687 40.5772 20.2757 41.1962 19.8917C42.1382 19.3037 43.1992 19.0087 44.3782 19.0087C45.9992 19.0087 46.8092 19.8917 46.8092 21.6607Z" fill="#595A59"/>
<path fill-rule="evenodd" clip-rule="evenodd" d="M50.1238 33.021L50.0798 33.198L49.6378 33.065V32.844L50.1238 33.021ZM49.6378 32.535H50.1238V32.313H49.6378V32.535ZM63.5618 1.018L60.9538 5.349C59.0098 8.503 57.7118 10.875 57.0638 12.466C56.2688 14.146 55.4728 15.811 54.6768 17.461C53.7638 19.377 53.0568 21.042 52.5558 22.457C52.2608 23.635 51.7738 25.241 51.0968 27.275C51.0368 27.481 51.1108 27.643 51.3178 27.76C51.2878 27.791 51.2288 27.827 51.1408 27.872C51.0528 27.916 50.9778 27.967 50.9198 28.026C51.0078 28.085 51.0968 28.114 51.1858 28.114C50.8318 29.853 50.6548 30.62 50.6548 30.413V30.701V30.987C50.5068 31.106 50.4338 31.385 50.4338 31.828C50.4038 32.387 50.3748 32.726 50.3448 32.844C50.2568 33.08 50.1168 33.286 49.9258 33.463C49.7328 33.639 49.6378 33.787 49.6378 33.905C49.6378 33.994 49.6668 34.096 49.7268 34.214L49.3288 33.905C49.3288 33.816 49.4608 33.639 49.7268 33.375C49.6668 33.286 49.5788 33.242 49.4608 33.242C49.3428 33.211 49.2838 33.227 49.2838 33.286C49.3428 33.05 49.2698 32.519 49.0628 31.695C49.0628 31.165 49.3428 28.895 49.9028 24.887L50.2128 25.153L50.3898 24.976C50.2418 24.858 50.1688 24.623 50.1688 24.269C50.1688 23.296 50.5218 22.191 51.2288 20.954C51.1108 20.511 51.0528 20.378 51.0528 20.555C51.0818 20.497 51.3028 20.364 51.7158 20.158C51.5388 19.981 51.4498 19.833 51.4498 19.715C51.4498 19.451 51.5978 19.201 51.8928 18.964C52.0098 17.933 52.7608 16.077 54.1468 13.395C54.1468 13.071 54.6468 11.877 55.6488 9.814C56.8878 7.192 57.5948 5.88 57.7708 5.88C57.8588 5.88 57.9478 5.924 58.0358 6.012C58.0358 5.454 58.5368 4.363 59.5398 2.742C60.6878 0.915 61.7058 0 62.5898 0C63.2368 0 63.5618 0.34 63.5618 1.018Z" fill="#595A59"/>
<path fill-rule="evenodd" clip-rule="evenodd" d="M67.408 6.71929C67.408 7.28029 67.157 7.56029 66.656 7.56029C66.096 7.56029 65.816 7.23629 65.816 6.58729C65.816 6.46929 65.964 6.13029 66.258 5.57129C67.024 5.71829 67.408 6.10129 67.408 6.71929ZM57.859 32.5343L57.551 33.0213L57.373 32.8883L57.683 32.4023L57.859 32.5343ZM57.595 32.4903L57.241 32.1373L57.108 32.2693L57.462 32.5783L57.595 32.4903ZM57.064 32.0923H57.815V31.8713H57.064V32.0923ZM62.369 20.2013C61.808 22.0883 61.101 24.1803 60.247 26.4793C59.54 28.3353 59.082 29.7803 58.877 30.8113C58.611 30.8113 58.434 30.8553 58.346 30.9433C58.346 31.2083 58.478 31.2233 58.744 30.9873C58.508 31.5463 58.095 32.4753 57.506 33.7723H56.931C56.872 33.6543 56.769 33.5073 56.622 33.3303V31.5623C56.828 31.3563 56.931 31.1643 56.931 30.9873C57.225 30.9873 57.418 31.0313 57.506 31.1193L57.683 30.8993C57.358 30.7223 57.02 30.6933 56.666 30.8113C56.872 29.8973 57.123 29.2483 57.418 28.8653C57.418 28.7483 57.329 28.6893 57.152 28.6893C57.506 27.5993 58.11 26.0663 58.965 24.0913V23.4283C59.023 23.1053 59.325 22.3753 59.871 21.2403C60.416 20.1063 60.777 19.5383 60.954 19.5383C61.72 19.8333 62.191 20.0553 62.369 20.2013Z" fill="#595A59"/>
<path fill-rule="evenodd" clip-rule="evenodd" d="M81.198 24.1362L81.1 23.9592L80.757 24.1362V24.3132L81.198 24.1362ZM80.138 17.5492H80.757V17.2842H80.138V17.5492ZM74.922 31.9162H75.673V31.6952H74.922V31.9162ZM70.546 32.0482H71.032V31.9152H70.546V32.0482ZM70.413 31.6322L70.259 31.5622L70.103 31.8452L70.259 31.9152L70.413 31.6322ZM82.083 20.8212C82.083 21.0272 82.023 21.3662 81.905 21.8372C81.905 21.8972 81.92 22.2352 81.95 22.8542C81.979 23.2672 81.846 23.5472 81.552 23.6942C81.64 23.7532 81.729 23.7822 81.817 23.7822L81.331 25.0642C81.331 25.1822 81.36 25.2702 81.42 25.3292C81.302 25.2122 81.125 25.2702 80.889 25.5062C80.977 25.5942 81.066 25.6392 81.154 25.6392C81.154 25.8162 81.081 25.9782 80.933 26.1242C80.933 25.9482 80.874 25.8602 80.757 25.8602C80.757 26.5082 80.432 27.2302 79.784 28.0262C78.604 29.4702 77.942 30.2952 77.795 30.5012C77.765 30.5012 77.706 30.4562 77.618 30.3682C77.53 30.2802 77.456 30.2362 77.397 30.2362C77.308 30.3542 77.367 30.5162 77.574 30.7222C75.953 31.9302 75.039 32.5342 74.833 32.5342C74.745 32.5342 74.552 32.5572 74.259 32.6012C73.964 32.6452 73.758 32.6672 73.639 32.6672C73.521 32.6672 73.477 32.6892 73.507 32.7342C73.536 32.7782 73.5 32.8002 73.396 32.8002C73.293 32.8002 73.021 32.8222 72.579 32.8652C72.136 32.9102 71.872 32.9322 71.783 32.9322C71.429 32.9322 70.825 32.6522 69.97 32.0922C69.97 31.9452 69.867 31.8712 69.662 31.8712C69.19 31.8712 68.806 31.3852 68.512 30.4122C68.336 29.7652 68.158 29.1022 67.981 28.4232C68.364 28.4232 68.541 28.4392 68.512 28.4682C68.158 28.2022 67.981 27.9372 67.981 27.6722C67.981 26.4642 68.836 24.5492 70.546 21.9252C72.519 18.8612 74.391 17.3282 76.159 17.3282C76.248 17.3282 76.38 17.4032 76.557 17.5492C76.704 17.3142 76.955 17.1962 77.308 17.1962C77.691 17.1962 77.957 17.3322 78.104 17.6042C78.252 17.8762 78.384 18.1482 78.502 18.4192C78.472 18.4192 78.31 18.5182 78.016 18.7142C77.72 18.9102 77.5 19.0082 77.353 19.0082C76.822 19.0082 76.027 19.5362 74.966 20.5932C74.435 21.1812 73.889 21.7612 73.33 22.3332C72.77 22.9072 72.093 23.9992 71.297 25.6152C70.502 27.2292 70.103 28.4482 70.103 29.2702C70.103 29.5342 70.316 29.8792 70.744 30.3052C71.171 30.7302 71.517 30.9432 71.783 30.9432C71.9 30.9432 72.144 30.8992 72.512 30.8112C72.881 30.7222 73.124 30.6782 73.242 30.6782C73.683 30.6782 74.229 30.4432 74.878 29.9712C75.82 29.3232 76.306 28.9842 76.336 28.9532C76.365 28.6002 76.601 28.2832 77.043 28.0032C77.485 27.7242 77.706 27.4502 77.706 27.1862C77.824 27.0982 77.971 27.1422 78.148 27.3192C78.148 27.1132 78.193 26.8762 78.281 26.6122C78.87 26.0522 79.298 25.2852 79.563 24.3132C79.799 23.4582 80.108 22.9282 80.491 22.7212C80.491 22.6932 80.506 22.6482 80.535 22.5882C80.564 22.5602 80.564 22.5442 80.535 22.5442H80.358C80.241 22.5442 80.152 21.9252 80.094 20.6882C80.034 19.5092 80.034 18.8172 80.094 18.6112C79.946 18.4632 79.828 18.4342 79.74 18.5222C79.74 18.4932 79.695 18.3452 79.607 18.0802C79.519 17.8152 79.504 17.5942 79.563 17.4172C79.504 17.3592 79.327 17.3282 79.032 17.3282C79.003 17.1522 79.047 16.8422 79.165 16.4002C80.05 16.7252 80.757 17.0932 81.287 17.5052C81.287 17.8892 81.198 18.1242 81.021 18.2122C81.376 18.5662 81.508 18.8312 81.42 19.0082C81.478 19.0682 81.611 19.0972 81.817 19.0972C81.817 19.2732 81.861 19.5752 81.95 20.0022C82.038 20.4302 82.083 20.7032 82.083 20.8212Z" fill="#595A59"/>
<path fill-rule="evenodd" clip-rule="evenodd" d="M90.9226 24.9312L90.6126 24.6222L90.4806 24.7102L90.7906 25.0642L90.9226 24.9312ZM90.9226 28.2022L90.8346 28.4232L90.3926 28.2462V28.0702L90.9226 28.2022ZM87.7396 17.4612L87.4306 17.1522L87.2986 17.2852L87.6076 17.5942L87.7396 17.4612ZM93.5746 14.9862L93.1326 15.4282C92.8966 15.4282 92.7196 15.4502 92.6026 15.4942C92.4846 15.5382 92.3816 15.5602 92.2926 15.5602C92.1746 15.5602 91.9536 15.5382 91.6296 15.4942C91.3056 15.4502 91.0846 15.4282 90.9666 15.4282C90.6126 15.4282 90.1786 15.6052 89.6626 15.9582C89.1476 16.3122 88.8896 16.6072 88.8896 16.8422C90.6866 21.4982 91.5856 24.6222 91.5856 26.2132C91.5856 27.2152 91.2906 28.4682 90.7016 29.9712C89.9356 31.9152 89.0226 32.8882 87.9616 32.8882C87.8726 32.8882 87.7836 32.8662 87.6956 32.8222C87.6076 32.7782 87.5036 32.7552 87.3866 32.7552C87.2686 32.7552 87.1286 32.8442 86.9666 33.0212C86.8046 33.1982 86.6796 33.2852 86.5906 33.2852C86.4726 33.2852 86.3476 33.2422 86.2146 33.1532C86.0826 33.0652 85.9566 33.0212 85.8396 33.0212C85.7216 33.0212 85.6546 33.0652 85.6406 33.1532C85.6256 33.2422 85.5596 33.2852 85.4416 33.2852C85.3816 33.2852 85.0726 33.1382 84.5136 32.8442V32.3582C84.6026 32.3582 84.7846 32.3352 85.0666 32.2912C85.3456 32.2472 85.5446 32.2252 85.6616 32.2252C85.7796 32.2252 85.8396 32.1812 85.8396 32.0922L85.7506 31.8712C85.8096 31.8412 85.8676 31.8412 85.9276 31.8712C85.9856 31.9012 85.9566 31.9452 85.8396 32.0042C86.1706 32.1512 86.4366 32.2252 86.6356 32.2252V31.4292C86.7476 31.5182 86.8736 31.5622 87.0146 31.5622C86.9866 31.3832 87.2536 30.9252 87.8176 30.1852C88.4646 29.3272 88.8446 28.7632 88.9576 28.4962C89.4426 27.4902 89.5976 26.4242 89.4216 25.2982C89.4496 25.2402 89.4646 25.1362 89.4646 24.9882C89.4646 24.5132 88.9926 23.0042 88.0496 20.4562C87.1066 17.9102 86.6356 16.2822 86.6356 15.5712C86.6356 15.0962 87.0176 14.6372 87.7836 14.1932C88.4326 13.8082 88.9186 13.6162 89.2426 13.6162C89.3606 13.6162 89.4196 13.6752 89.4196 13.7922C89.4196 13.9102 89.4646 13.9692 89.5526 13.9692H89.9946C89.9946 13.8522 89.8766 13.7922 89.6406 13.7922C90.0536 13.6752 90.4216 13.6162 90.7456 13.6162C90.7456 13.8802 90.7756 14.0432 90.8346 14.1022C90.8626 14.1022 90.9296 14.0652 91.0326 13.9922C91.1366 13.9172 91.2026 13.8672 91.2326 13.8362C91.1726 13.8362 91.1136 13.8232 91.0556 13.7922C91.5566 13.8802 92.0566 13.9692 92.5586 14.0582C93.2356 14.2342 93.5746 14.5432 93.5746 14.9862Z" fill="#595A59"/>
</svg>
